<?xml version="1.0" encoding="utf-8"?>
<!-- Generator: Adobe Illustrator 24.1.2, SVG Export Plug-In . SVG Version: 6.00 Build 0)  -->
<svg version="1.1" id="Layer_1" xmlns="http://www.w3.org/2000/svg" xmlns:xlink="http://www.w3.org/1999/xlink" x="0px" y="0px"
	 viewBox="0 0 625 198" style="enable-background:new 0 0 625 198;" xml:space="preserve">
<style type="text/css">
	.st0{fill:#FDCE8B;}
	.st1{fill:#7DC6DF;}
</style>
<path class="st0" d="M165,57.9v0.02c-1.93-3.13-4.61-5.8-7.88-7.69L106.6,21.07c-6.94-4.01-15.56-4.01-22.5,0L33.59,50.23
	c-6.94,4.01-11.25,11.47-11.25,19.49v58.33c0,8.04,4.29,15.47,11.25,19.49L84.1,176.7c3.47,2,7.36,3,11.25,3c3.89,0,7.78-1,11.25-3
	l50.51-29.16c5.5-3.17,9.34-8.52,10.71-14.58l0,0c0.36-1.59,0.55-3.23,0.55-4.89V69.73C168.36,65.48,167.16,61.4,165,57.9z
	 M40.32,61.9l50.51-29.16c1.39-0.8,2.96-1.21,4.52-1.21c1.56,0,3.12,0.4,4.52,1.21l59.65,34.44c1.95,1.12,1.95,3.93,0,5.06
	l-43.96,25.38c-2.77,1.6-6.19,1.6-8.96,0l0,0c-6.96-4.02-15.54-4.02-22.5,0l-0.07,0.04c-2.77,1.6-6.19,1.6-8.96,0L40.28,77.56
	c-2.77-1.6-4.48-4.56-4.48-7.76v-0.08C35.8,66.5,37.53,63.5,40.32,61.9z M40.18,81.39L71.8,99.65c1.95,1.12,1.95,3.93,0,5.06
	l-31.62,18.26c-1.95,1.12-4.38-0.28-4.38-2.53V83.92C35.8,81.67,38.23,80.26,40.18,81.39z M99.87,165.04
	c-2.79,1.61-6.25,1.61-9.04,0l-43.92-25.36c-1.95-1.12-1.95-3.93,0-5.06l43.92-25.36c2.79-1.61,6.25-1.61,9.04,0l43.92,25.36
	c1.95,1.12,1.95,3.93,0,5.06L99.87,165.04z M118.83,99.61l41.79-24.13c1.95-1.12,4.38,0.28,4.38,2.53v48.26
	c0,2.25-2.43,3.65-4.38,2.53l-41.79-24.13C116.88,103.54,116.88,100.73,118.83,99.61z"/>
<g>
	<g>
		<g>
			<path class="st1" d="M256.06,138.64V59.75h24.87v78.89H256.06z"/>
		</g>
		<g>
			<path class="st1" d="M281.92,138.64l26.11-41.03l-23.79-37.87h27.45l10.17,19.98l11.09-19.98h26.83l-24.61,37.87l25.44,41.03
				h-27.56l-11.51-21.37l-11.56,21.37H281.92z"/>
		</g>
		<g>
			<rect x="362.25" y="59.75" class="st1" width="24.87" height="78.89"/>
		</g>
		<g>
			<path class="st1" d="M449.89,64.25c-2.72-1.61-5.91-2.76-9.57-3.46c-3.66-0.7-9.25-1.04-16.74-1.04h-29.52v78.89h24.98
				c8.22,0,14.2-0.25,17.93-0.75c3.73-0.5,6.84-1.34,9.31-2.52c6.4-2.96,11.24-7.49,14.53-13.58c3.28-6.09,4.93-13.59,4.93-22.52
				c0-8.5-1.32-15.66-3.97-21.48C459.11,71.98,455.16,67.46,449.89,64.25z M437.69,114.43c-2.36,2.82-6.58,4.23-12.67,4.23h-6.55
				V79.73h6.86c5.78,0,9.87,1.48,12.28,4.45c2.41,2.96,3.61,8,3.61,15.1C441.22,106.56,440.04,111.61,437.69,114.43z"/>
		</g>
		<g>
			<path class="st1" d="M251.73,103.24c-1.55-2.96-4.01-5.61-7.38-7.93c-2.72-1.89-8.5-4-17.34-6.32c-1.96-0.5-3.42-0.87-4.39-1.12
				c-0.31-0.07-0.76-0.2-1.34-0.37c-6.67-1.75-10.01-3.93-10.01-6.53c0-1.82,0.64-3.18,1.91-4.07c1.27-0.89,3.22-1.34,5.83-1.34
				c2.96,0,5.24,0.57,6.84,1.71c0.88,0.63,1.57,1.44,2.08,2.42l0.01,0c0,0,1.4,2.78,4,2.78h20.05c-0.72-7.96-3.89-14.08-9.49-18.34
				c-5.61-4.27-13.3-6.4-23.07-6.4c-9.94,0-17.75,2.23-23.43,6.69c-5.68,4.46-8.51,10.6-8.51,18.42c0,3.89,0.73,7.36,2.19,10.39
				c1.46,3.04,3.65,5.64,6.58,7.82c1.51,1.07,3.93,2.22,7.25,3.45c3.32,1.23,7.78,2.6,13.39,4.1c0.72,0.18,1.77,0.45,3.15,0.8
				c6.85,1.79,10.27,4.11,10.27,6.96c0,1.79-0.82,3.19-2.45,4.2c-1.63,1.02-3.88,1.53-6.73,1.53c-3.41,0-5.97-0.62-7.69-1.87
				c-1.1-0.8-1.98-1.93-2.64-3.38l0,0c0,0-1.4-2.78-4-2.78h-20.65c0.72,8.5,4.03,15.09,9.93,19.76c5.9,4.68,13.89,7.02,23.97,7.02
				c10.94,0,19.34-2.34,25.21-7.02c5.86-4.68,8.8-11.37,8.8-20.08C254.06,109.7,253.28,106.2,251.73,103.24z"/>
		</g>
		<g>
			<path class="st1" d="M596.74,103.24c-1.55-2.96-4.01-5.61-7.38-7.93c-2.72-1.89-8.5-4-17.34-6.32c-1.96-0.5-3.42-0.87-4.39-1.12
				c-0.31-0.07-0.76-0.2-1.34-0.37c-6.67-1.75-10.01-3.93-10.01-6.53c0-1.82,0.64-3.18,1.91-4.07c1.27-0.89,3.22-1.34,5.83-1.34
				c2.96,0,5.24,0.57,6.84,1.71c0.88,0.63,1.57,1.44,2.08,2.42l0.01,0c0,0,1.4,2.78,4,2.78H597c-0.72-7.96-3.89-14.08-9.49-18.34
				c-5.61-4.27-13.3-6.4-23.07-6.4c-9.94,0-17.75,2.23-23.43,6.69c-5.68,4.46-8.51,10.6-8.51,18.42c0,3.89,0.73,7.36,2.19,10.39
				c1.46,3.04,3.65,5.64,6.58,7.82c1.51,1.07,3.93,2.22,7.25,3.45c3.32,1.23,7.78,2.6,13.39,4.1c0.72,0.18,1.77,0.45,3.15,0.8
				c6.85,1.79,10.27,4.11,10.27,6.96c0,1.79-0.82,3.19-2.45,4.2c-1.63,1.02-3.88,1.53-6.73,1.53c-3.41,0-5.97-0.62-7.69-1.87
				c-1.1-0.8-1.98-1.93-2.64-3.38l0,0c0,0-1.4-2.78-4-2.78h-20.65c0.72,8.5,4.03,15.09,9.93,19.76c5.9,4.68,13.89,7.02,23.97,7.02
				c10.94,0,19.34-2.34,25.21-7.02c5.86-4.68,8.8-11.37,8.8-20.08C599.07,109.7,598.29,106.2,596.74,103.24z"/>
		</g>
		<g>
			<path class="st1" d="M493.41,119.47v-12.21h30.71v-18.1h-30.71v-10.5h36.33V64.47v-1.29c-0.17-1.4-1.01-3.43-4.47-3.43h-56.27
				v71.11v0.16c0.01,1.06,0.38,7.62,8.12,7.62h54.11v-19.17H493.41z"/>
		</g>
	</g>
	
		<rect x="362.25" y="79.73" transform="matrix(-1 -1.224647e-16 1.224647e-16 -1 749.3745 168.881)" class="st0" width="24.87" height="9.43"/>
</g>
</svg>
