<svg xmlns="http://www.w3.org/2000/svg" width="20" height="20" viewBox="0 0 20 20">
  <path id="Path_70" data-name="Path 70" d="M395.505,211.933h8.905q0-3.73,0-7.461c0-.141-.046-.18-.183-.179-.762.005-1.524,0-2.286.005-.155,0-.2-.049-.2-.2q.009-1.446,0-2.891c0-.175.06-.219.224-.217.745.007,1.49,0,2.236.006.159,0,.213-.044.212-.208q-.011-1.177,0-2.353a3.617,3.617,0,0,1,.3-1.536,3.581,3.581,0,0,1,3.341-2.192c.862-.029,1.726,0,2.589-.008.176,0,.226.061.211.27a16.312,16.312,0,0,0,0,2.437c.017.216-.021.281-.2.279-.6-.007-1.2,0-1.8,0a1.11,1.11,0,0,0-1.136,1.1c.013.667.008,1.334,0,2,0,.173.053.218.22.217.874-.007,1.748,0,2.622,0,.228,0,.25.027.217.257-.04.282-.085.564-.122.846-.089.67-.18,1.34-.257,2.011-.019.167-.094.195-.24.193-.745-.006-1.491,0-2.236-.006-.166,0-.2.052-.2.21q.007,3.716,0,7.431h4.338a1.727,1.727,0,0,0,1.727-1.727V193.66a1.727,1.727,0,0,0-1.727-1.727H395.505a1.727,1.727,0,0,0-1.727,1.727v16.545A1.727,1.727,0,0,0,395.505,211.933Z" transform="translate(-393.778 -191.933)" fill="#005574"/>
</svg>
