<svg id="Component_13_39" data-name="Component 13 – 39" xmlns="http://www.w3.org/2000/svg" width="20" height="20" viewBox="0 0 20 20">
  <path id="Path_61" data-name="Path 61" d="M14.042,0H5.958A5.965,5.965,0,0,0,0,5.958v8.084A5.965,5.965,0,0,0,5.958,20h8.084A5.965,5.965,0,0,0,20,14.042V5.958A5.965,5.965,0,0,0,14.042,0Zm3.946,14.042a3.946,3.946,0,0,1-3.946,3.946H5.958a3.946,3.946,0,0,1-3.946-3.946V5.958A3.946,3.946,0,0,1,5.958,2.012h8.084a3.946,3.946,0,0,1,3.946,3.946v8.084Z" fill="#005574"/>
  <path id="Path_62" data-name="Path 62" d="M138.173,133a5.173,5.173,0,1,0,5.173,5.173A5.179,5.179,0,0,0,138.173,133Zm0,8.333a3.161,3.161,0,1,1,3.161-3.161A3.161,3.161,0,0,1,138.173,141.333Z" transform="translate(-128.173 -128.173)" fill="#005574"/>
  <circle id="Ellipse_6" data-name="Ellipse 6" cx="1.239" cy="1.239" r="1.239" transform="translate(13.943 3.627)" fill="#005574"/>
</svg>
