<svg xmlns="http://www.w3.org/2000/svg" width="20.123" height="20.123" viewBox="0 0 20.123 20.123">
  <g id="linkedin-new-2020-seeklogo.com" transform="translate(0.001 0.001)">
    <path id="Path_80" data-name="Path 80" d="M17.145,17.145H14.163V12.476c0-1.113-.02-2.547-1.551-2.547-1.553,0-1.791,1.213-1.791,2.466v4.75H7.84v-9.6H10.7V8.855h.04A3.137,3.137,0,0,1,13.567,7.3c3.022,0,3.579,1.988,3.579,4.574ZM4.476,6.23A1.73,1.73,0,1,1,5.7,5.723a1.73,1.73,0,0,1-1.223.507M5.967,17.145H2.982v-9.6H5.967ZM18.631,0H1.484A1.468,1.468,0,0,0,0,1.451V18.67a1.47,1.47,0,0,0,1.485,1.452H18.631a1.473,1.473,0,0,0,1.491-1.452V1.45A1.472,1.472,0,0,0,18.631,0" fill="#005574"/>
  </g>
</svg>
