<svg xmlns="http://www.w3.org/2000/svg" width="20" height="20" viewBox="0 0 20 20">
  <path id="tiktok-share-icon-black-seeklogo.com" d="M21.619,4H6.381A2.384,2.384,0,0,0,4,6.381V21.619A2.384,2.384,0,0,0,6.381,24H21.619A2.384,2.384,0,0,0,24,21.619V6.381A2.384,2.384,0,0,0,21.619,4m-1.9,8.725q-.164.016-.329.017A3.568,3.568,0,0,1,16.4,11.128v5.494a4.06,4.06,0,1,1-4.06-4.06c.085,0,.168.008.251.013v2a2.068,2.068,0,1,0-.251,4.12A2.123,2.123,0,0,0,14.5,16.649l.02-9.33h1.914A3.566,3.566,0,0,0,19.719,10.5v2.224" transform="translate(-4 -4)" fill="#005574"/>
</svg>
